PathFileType	4	(X/Y/Z)	2014001\dynamic\2014001_C1_02.trc
DataRate	CameraRate	NumFrames	NumMarkers	Units	OrigDataRate	OrigDataStartFrame	OrigNumFrames
100.000000	100.000000	4	52	mm	100.000000	53	426
Frame#	Time	L_IAS			L_IPS			R_IPS			R_IAS			L_FTC			L_FLE			L_FME			L_FAX			L_TTC			L_FAL			L_TAM			L_FCC			L_FM1			L_FM2			L_FM5			R_FTC			R_FLE			R_FME			R_FAX			R_TTC			R_FAL			R_TAM			R_FCC			R_FM1			R_FM2			R_FM5			CV7			TV10			SXS			SJN			L_SIA			L_SRS			L_SAA			L_SAE			L_HLE			L_HME			L_UOA			L_RSP			L_UHE			L_HM2			L_HM5			R_SIA			R_SRS			R_SAA			R_SAE			R_HLE			R_HME			R_UOA			R_RSP			R_UHE			R_HM2			R_HM5			
		X1	Y1	Z1	X2	Y2	Z2	X3	Y3	Z3	X4	Y4	Z4	X5	Y5	Z5	X6	Y6	Z6	X7	Y7	Z7	X8	Y8	Z8	X9	Y9	Z9	X10	Y10	Z10	X11	Y11	Z11	X12	Y12	Z12	X13	Y13	Z13	X14	Y14	Z14	X15	Y15	Z15	X16	Y16	Z16	X17	Y17	Z17	X18	Y18	Z18	X19	Y19	Z19	X20	Y20	Z20	X21	Y21	Z21	X22	Y22	Z22	X23	Y23	Z23	X24	Y24	Z24	X25	Y25	Z25	X26	Y26	Z26	X27	Y27	Z27	X28	Y28	Z28	X29	Y29	Z29	X30	Y30	Z30	X31	Y31	Z31	X32	Y32	Z32	X33	Y33	Z33	X34	Y34	Z34	X35	Y35	Z35	X36	Y36	Z36	X37	Y37	Z37	X38	Y38	Z38	X39	Y39	Z39	X40	Y40	Z40	X41	Y41	Z41	X42	Y42	Z42	X43	Y43	Z43	X44	Y44	Z44	X45	Y45	Z45	X46	Y46	Z46	X47	Y47	Z47	X48	Y48	Z48	X49	Y49	Z49	X50	Y50	Z50	X51	Y51	Z51	X52	Y52	Z52	

54	0.53	398.6437072753909	879.4046020507817	210.989471435547	345.9775695800782	921.1417846679692	27.27437782287599	257.3838500976564	920.5769042968755	12.81221961975098	159.4599151611329	886.8629760742192	178.707504272461	459.5756835937502	795.053344726563	139.7806396484376	409.3593750000002	439.2084655761721	156.6706848144532	293.524627685547	435.7549133300784	170.7185516357422	409.9069824218752	376.093475341797	140.6086578369141	359.0608215332032	363.7068176269532	201.0697479248048	346.8021240234376	60.11789321899417	137.9832458496094	260.0568847656251	75.67187500000003	159.6349029541016	297.9697875976564	20.46568107604981	95.40954589843753	275.350067138672	25.26139640808107	277.6569213867189	338.0521240234376	37.05655670166017	284.9861450195314	383.1639404296876	23.51121139526368	229.1717987060548	113.2207031250001	796.3505249023442	72.31166839599612	96.5896835327149	452.7613220214846	74.50800323486331	208.7053833007814	415.9919433593752	112.5906295776368	93.39290618896487	410.5025024414065	29.19151115417482	126.9808349609376	359.3463439941407	84.54414367675784	147.1419830322266	194.8930206298829	-195.881317138672	220.1852569580079	171.4375915527344	-144.6507720947266	214.0065917968751	189.215560913086	-241.9285278320314	191.2998352050782	52.80895614624026	-125.9143295288087	134.1107635498047	63.39040374755862	-127.7289199829102	103.057113647461	92.2259216308594	-179.2795562744141	298.0389099121095	1387.86962890625	56.64082336425784	309.3097534179689	1155.288940429688	-8.794834136962894	297.1655273437501	1157.990844726563	222.2151336669923	296.4649047851564	1320.982666015625	182.0169525146485	405.0186157226565	1194.91455078125	-5.227719783782961	392.4622802734377	1324.816650390625	15.65905570983887	495.6009216308596	1326.025024414063	97.84800720214849	477.2433776855471	1335.64111328125	137.248764038086	564.707458496094	1053.234252929688	113.6985092163087	491.4136962890627	1017.668273925782	83.27435302734378	542.9466552734377	1014.411010742188	81.47126770019534	510.9158325195315	840.2940063476567	241.3332672119142	580.5266723632815	828.1154174804692	202.5056915283204	514.3997192382815	767.7058105468752	287.7335205078126	581.2175903320315	750.3702392578127	212.8624877929689	191.3488922119141	1196.632446289063	-19.91526794433594	212.2133636474611	1320.435791015625	9.233319282531742	105.9485702514649	1313.702514648438	86.29840087890628	117.275131225586	1318.558837890625	133.8452301025391	46.38205718994142	1013.527709960938	95.01331329345706	122.2787551879883	995.479125976563	72.72276306152347	76.45228576660159	983.565551757813	70.13506317138675	91.17347717285159	838.325561523438	244.349578857422	29.97268676757814	818.0769653320317	195.2322235107423	80.53311920166018	761.3580322265627	298.4279785156251	37.33134078979494	740.138610839844	208.3344573974611	
55	0.54	400.0142822265627	879.400024414063	213.9117736816407	347.0463256835939	921.0305786132817	30.26034927368165	258.4197692871095	920.5842895507817	15.91044330596925	160.7654724121094	887.3114624023442	182.0415039062501	460.6695861816409	794.8566284179692	142.2850036621094	409.9961547851565	439.0671081542971	157.4809265136719	294.1599121093751	435.6398620605471	172.032211303711	410.416198730469	376.0476379394532	141.0850067138672	359.7805480957032	363.4647521972657	201.7247009277345	346.7850341796876	60.12128829956058	137.8835754394532	260.1002197265626	75.78710937500003	159.8235015869141	297.9573974609376	20.47575759887696	95.37165832519534	275.2976379394532	25.32714271545412	277.6491699218751	338.0584411621095	36.99647140502931	284.9595336914064	383.1986389160157	23.47313117980958	229.1652984619142	114.1349258422852	796.5490722656255	76.12397003173831	97.27639007568365	452.9595642089846	81.22353363037112	209.5191802978517	416.250183105469	119.2841873168946	93.94780731201175	410.8931579589846	36.10945510864259	127.510612487793	359.6356201171876	91.57409667968753	147.3876647949219	194.9946746826173	-188.7127685546876	220.2071990966798	171.1195983886719	-137.1620178222657	214.3204345703126	188.5108947753907	-234.7419433593751	189.3006286621094	53.20711517333987	-117.1025390625001	132.380111694336	64.68875885009768	-119.4154815673829	102.1171493530274	93.422477722168	-171.3056335449219	299.3884887695314	1388.00341796875	59.14252853393558	310.5947570800782	1155.28955078125	-6.066355705261234	298.2060852050782	1158.163452148438	224.7936248779298	297.6534118652345	1321.210205078125	184.5341339111329	406.3925781250002	1194.892822265625	-2.388658523559571	393.8414611816409	1324.812133789063	18.28121566772462	496.9071350097659	1326.067138671875	100.5847625732422	478.4837646484377	1335.764038085938	139.9354858398438	565.9409790039065	1053.294555664063	117.4542312622071	492.6631469726565	1017.606384277344	87.13259124755862	544.1871337890627	1014.384155273438	85.35364532470706	512.3276977539065	840.6484985351567	245.6397094726564	581.934509277344	828.4392089843755	206.8313751220704	515.9273681640627	768.1806640625005	292.2205810546876	582.7349243164065	750.7312622070315	217.3743438720704	192.7278594970704	1196.705688476563	-17.40401649475098	213.6109466552736	1320.518676757813	11.64551258087159	107.2537918090821	1313.879516601563	88.57728576660159	118.5192794799805	1318.807495117188	136.0520324707032	47.65981292724611	1013.641052246094	97.58015441894537	123.5692138671876	995.5636596679692	75.44419097900393	77.75103759765628	983.4754028320317	72.93889617919925	93.02130889892581	839.9840698242192	248.5771331787111	31.86477279663087	819.0136718750005	199.7186889648439	82.68148040771487	763.552429199219	303.4562988281251	39.53323364257814	741.230163574219	213.6133270263673	
56	0.55	401.361999511719	879.3765258789067	216.7471618652345	348.0689697265626	920.893432617188	33.19275283813478	259.4074096679689	920.5630493164067	18.96648216247559	162.0575103759766	887.726928710938	185.3449401855469	461.774108886719	794.6460571289067	144.6615142822266	410.6434326171877	438.9256896972659	158.1688995361329	294.8364868164064	435.5590515136721	173.2379760742188	410.9290771484377	376.0001525878907	141.4476318359376	360.5262756347657	363.2237548828126	202.2828521728517	346.7696838378907	60.11930465698245	137.7573242187501	260.1744689941407	75.89348602294925	159.9809875488282	297.9455566406251	20.47606277465821	95.32559967041018	275.2456970214845	25.41233062744142	277.6352844238282	338.065399169922	36.93823242187501	284.9213256835939	383.2396850585939	23.42985725402833	229.1529846191407	115.0253219604493	796.7255249023442	79.90504455566409	97.93981933593756	453.1447448730471	87.81965637207034	210.3064880371095	416.5132446289065	125.8357696533204	94.47630310058597	411.2251281738284	42.93152236938478	128.0257110595704	359.9250488281251	98.53620910644537	147.5142822265626	194.6211700439454	-181.3446197509766	220.1280059814454	170.4415893554688	-129.4359588623047	214.4489288330079	187.2636871337891	-227.387664794922	187.4147949218751	53.35382461547854	-107.911003112793	130.7054290771485	65.71240234375003	-110.657699584961	101.1519927978516	94.15467834472659	-162.8392486572266	300.6976013183595	1388.1103515625	61.59204101562503	311.8134155273439	1155.267822265625	-3.391541481018068	299.2165832519532	1158.310424804688	227.3181915283204	298.8135681152345	1321.413452148438	186.9982147216797	407.7032775878909	1194.85009765625	0.3779879808425906	395.1691894531252	1324.784912109375	20.83965110778809	498.175476074219	1326.069580078125	103.2444763183594	479.6922607421877	1335.847778320313	142.5513763427735	567.1047973632815	1053.30859375	121.0708007812501	493.8429870605471	1017.521118164063	90.83515167236331	545.3555297851565	1014.327575683594	89.08134460449222	513.6213989257815	840.9257202148442	249.7268981933595	583.2276611328127	828.6860961914067	210.9528961181642	517.3093872070315	768.5666503906255	296.4704895019532	584.1166992187502	751.0091552734377	221.6553344726564	194.0480194091798	1196.759155273438	-14.92955780029298	214.9553375244142	1320.584838867188	14.01802825927735	108.5188674926758	1314.040771484375	90.82634735107425	119.721305847168	1319.02685546875	138.2598876953126	48.8998947143555	1013.746459960938	100.0647354125977	124.8254013061524	995.6430053710942	78.07806396484378	79.01661682128909	983.396606445313	75.64685821533206	94.77362823486331	841.5039062500005	252.5671234130861	33.65488052368165	819.8878784179692	203.9535675048829	84.69289398193362	765.5950317382815	308.1907043457032	41.60059356689455	742.255554199219	218.5836181640626	
57	0.5600000000000001	402.6914062500002	879.3354492187505	219.4967803955079	349.0450439453126	920.7302856445317	36.07036209106447	260.3464965820314	920.5121459960942	21.98034477233887	163.3400878906251	888.1068725585942	188.619369506836	462.8860778808596	794.4242553710942	146.919174194336	411.2983398437502	438.784362792969	158.7502441406251	295.5520019531251	435.5085449218752	174.337142944336	411.443542480469	375.9498291015626	141.7140197753907	361.289276123047	362.9832763671876	202.7536773681642	346.756805419922	60.10917282104495	137.6074371337891	260.2814025878907	75.98590850830081	160.0989532470704	297.9340820312501	20.46666717529298	95.27234649658206	275.1983337402345	25.51577186584474	277.615447998047	338.0753173828126	36.88426208496095	284.8716735839845	383.2870483398439	23.3817481994629	229.1340179443361	115.892448425293	796.874145507813	83.66116333007815	98.57516479492193	453.3079223632815	94.31050872802737	211.0670166015626	416.774597167969	132.2467193603516	94.9764099121094	411.4801940917971	49.67053222656253	128.5295867919922	360.2093811035157	105.4366760253907	147.5310974121094	193.7893371582032	-173.7828063964844	219.966766357422	169.4381408691407	-121.5007476806641	214.3972778320314	185.5168457031251	-219.8710784912111	185.691390991211	53.26372146606448	-98.37870025634771	129.1418762207032	66.45433044433597	-101.4900665283204	100.2041320800782	94.42166900634768	-153.9308013916016	301.9665832519532	1388.189575195313	63.99314117431643	312.9666442871095	1155.223999023438	-0.7675621509552006	300.2035217285157	1158.434448242188	229.7971343994142	299.9464416503907	1321.590087890625	189.4137115478516	408.9526367187502	1194.787719726563	3.071897029876711	396.4467468261721	1324.736328125	23.33889389038087	499.4069824218752	1326.033447265625	105.8340301513672	480.8691406250002	1335.891235351563	145.1030731201172	568.2007446289065	1053.275756835938	124.5506820678712	494.955993652344	1017.412048339844	94.38054656982425	546.455017089844	1014.240661621094	92.65583038330081	514.796081542969	841.1247558593755	253.5965728759767	584.404724121094	828.8535156250005	214.8690338134767	518.5440063476565	768.862426757813	300.4830017089845	585.3598632812502	751.2009277343752	225.7048950195314	195.3090667724611	1196.79150390625	-12.48697566986085	216.2466888427736	1320.632446289063	16.35575675964356	109.7442245483399	1314.183715820313	93.05079650878909	120.8822479248047	1319.21484375	140.4732971191407	50.10445022583011	1013.839965820313	102.4812774658204	126.0502395629883	995.7141113281255	80.63837432861331	80.25161743164065	983.3275756835942	78.26890563964847	96.41905975341803	842.8688354492192	256.323455810547	35.33674240112306	820.684204101563	207.9329833984376	86.55312347412112	767.461608886719	312.6301574707032	43.52289199829103	743.1961669921877	223.2381439208986	
